<svg version="1.1" id="Layer_1" xmlns="http://www.w3.org/2000/svg" xmlns:xlink="http://www.w3.org/1999/xlink" x="0px" y="0px"
	 width="100%" viewBox="0 0 1571 1571" xml:space="preserve"><style type="text/css">
	.st0{fill:#25D366;}
	.st1{fill-rule:evenodd;clip-rule:evenodd;fill:#FFFFFF;}
</style>
<path fill="#4383AF" opacity="1.000000" stroke="none" 
	d="
M1.000006,843.000000 
	C1.000000,805.312439 1.000000,767.624878 1.418150,729.609985 
	C2.201112,728.770020 2.834385,728.285522 2.891715,727.740479 
	C4.628420,711.228516 6.040224,694.677490 8.080520,678.204041 
	C9.770057,664.562683 11.707517,650.914978 14.409122,637.445374 
	C17.809576,620.491455 21.303431,603.481445 26.184168,586.916138 
	C34.391327,559.060913 42.895702,531.236450 52.806358,503.955322 
	C63.594177,474.259583 76.516739,445.348114 92.135971,417.810577 
	C104.485397,396.037872 117.001785,374.317078 130.517410,353.262299 
	C141.026917,336.890472 152.699600,321.193787 164.745728,305.898315 
	C179.290436,287.430328 193.946899,268.922058 210.047699,251.838013 
	C234.026657,226.394653 258.654877,201.452087 286.494629,180.078979 
	C307.413513,164.019165 328.198730,147.707581 349.949127,132.832352 
	C368.416016,120.202736 387.726501,108.618233 407.480560,98.106277 
	C432.765350,84.651176 458.330322,71.429871 484.768250,60.514812 
	C512.481140,49.073376 541.154602,39.786507 569.819946,30.883465 
	C589.570312,24.749290 609.965210,20.621149 630.180298,16.077909 
	C642.606384,13.285204 655.199280,11.164457 667.786133,9.178403 
	C678.641113,7.465622 689.576050,6.204231 700.508301,5.053673 
	C709.356506,4.122441 718.256836,3.692765 727.121521,2.899973 
	C727.798889,2.839395 728.376160,1.659568 729.000000,0.999996 
	C766.687561,1.000000 804.375122,1.000000 842.391541,1.419506 
	C843.400146,2.215801 844.055786,2.865190 844.763306,2.927798 
	C853.132385,3.668420 861.530334,4.127770 869.879150,5.040779 
	C883.907898,6.574935 898.022644,7.737085 911.890869,10.227359 
	C932.616028,13.948913 953.211060,18.452557 973.767151,23.045500 
	C1006.176086,30.286793 1037.710815,40.553295 1068.658936,52.448410 
	C1098.618774,63.963673 1128.013672,76.897636 1156.059692,92.614914 
	C1173.757812,102.533081 1191.672363,112.204254 1208.568359,123.379395 
	C1230.264160,137.729111 1251.469238,152.913956 1272.073608,168.792725 
	C1289.912354,182.540161 1307.274414,197.060760 1323.663940,212.496033 
	C1346.107300,233.632629 1367.981201,255.457504 1387.161499,279.718842 
	C1402.519531,299.145172 1418.274780,318.316589 1432.571655,338.509003 
	C1453.871460,368.592377 1472.762329,400.272919 1488.942627,433.415405 
	C1498.984253,453.984070 1508.063232,475.046600 1516.941162,496.153809 
	C1529.366089,525.694031 1538.955078,556.229004 1546.976318,587.239380 
	C1554.349121,615.742737 1560.720825,644.463867 1564.045288,673.768799 
	C1566.118530,692.044678 1567.991821,710.343262 1570.070435,728.618469 
	C1570.205322,729.803406 1571.333740,730.875427 1572.000000,732.000000 
	C1572.000000,768.020874 1572.000000,804.041809 1571.580566,840.391357 
	C1570.775513,841.732056 1570.142700,842.720459 1570.043457,843.759888 
	C1569.308594,851.460388 1568.885864,859.195496 1567.974487,866.873352 
	C1566.119507,882.501770 1564.516357,898.185120 1561.893555,913.690979 
	C1558.598877,933.170166 1555.217896,952.705505 1550.357544,971.831177 
	C1544.376587,995.366272 1537.837402,1018.862061 1529.700195,1041.720093 
	C1520.178589,1068.466797 1509.116821,1094.698853 1497.859131,1120.781128 
	C1491.563965,1135.366089 1483.933960,1149.428467 1476.155396,1163.305908 
	C1466.402222,1180.706177 1456.725098,1198.253296 1445.486694,1214.692017 
	C1429.601929,1237.927246 1412.862061,1260.634033 1395.455688,1282.754761 
	C1382.219604,1299.575562 1368.112793,1315.860596 1353.062744,1331.066895 
	C1334.088867,1350.237549 1313.974121,1368.304321 1293.931885,1386.381714 
	C1283.207886,1396.054321 1271.958496,1405.235840 1260.309204,1413.769287 
	C1243.558594,1426.039429 1226.547485,1438.018555 1209.051880,1449.188843 
	C1191.969360,1460.095703 1174.427124,1470.367920 1156.571289,1479.959473 
	C1126.978271,1495.855347 1096.490723,1509.864990 1064.963013,1521.633667 
	C1037.711792,1531.806030 1010.118042,1540.810059 981.938721,1547.945190 
	C954.678101,1554.848022 927.207214,1560.832397 899.220947,1564.041748 
	C880.950562,1566.136963 862.652710,1567.992188 844.380310,1570.070435 
	C843.195679,1570.205078 842.124146,1571.333740 841.000000,1572.000000 
	C804.979126,1572.000000 768.958191,1572.000000 732.608459,1571.580566 
	C727.162231,1570.445557 722.054749,1569.647339 716.925598,1569.029785 
	C699.980530,1566.989868 682.945007,1565.539307 666.098999,1562.881226 
	C645.767639,1559.672974 625.422668,1556.197144 605.392273,1551.516357 
	C573.753113,1544.123047 542.700928,1534.658813 512.219177,1523.215332 
	C476.599915,1509.843140 441.766510,1494.763794 408.835510,1475.768921 
	C383.912109,1461.392944 359.614319,1445.871338 335.559784,1430.065674 
	C304.446960,1409.622070 275.993500,1385.657104 248.971817,1360.158203 
	C231.480286,1343.652344 214.883865,1326.102417 198.909821,1308.111572 
	C183.655487,1290.931274 169.378510,1272.843994 155.289886,1254.676270 
	C128.927002,1220.680542 106.533684,1184.068481 87.156143,1145.741333 
	C75.352699,1122.395020 64.385010,1098.503418 54.936562,1074.122559 
	C44.804554,1047.977905 35.963596,1021.238220 28.259241,994.272461 
	C19.462824,963.484375 12.630785,932.138916 8.952987,900.230225 
	C6.884920,882.287598 5.008568,864.322937 2.929818,846.381653 
	C2.792422,845.195801 1.666264,844.124573 1.000006,843.000000 
M1170.179810,546.304260 
	C1140.814941,497.331726 1099.676270,462.248932 1046.337036,441.716644 
	C1020.194153,431.653259 993.006775,426.560272 964.998474,426.538391 
	C845.674316,426.445129 726.349731,426.371735 607.026184,426.671967 
	C593.521851,426.705933 579.841187,428.165283 566.554443,430.639801 
	C512.811218,440.649048 467.579041,466.421387 431.351196,507.220917 
	C391.711578,551.862732 370.137268,604.062134 369.909790,664.169800 
	C369.595703,747.161804 369.807434,830.155945 369.883240,913.149109 
	C369.888977,919.413513 370.401062,925.698059 371.032837,931.937256 
	C372.757019,948.965332 376.509521,965.570068 382.042023,981.763855 
	C395.506348,1021.174561 417.693909,1054.884521 448.272797,1083.125854 
	C472.075806,1105.109253 499.336090,1121.740601 529.679321,1132.567383 
	C556.229980,1142.041016 583.816711,1146.753540 612.351196,1146.660645 
	C728.341125,1146.282715 844.333069,1146.532959 960.324158,1146.444702 
	C969.105835,1146.438110 977.913513,1145.886230 986.663391,1145.087646 
	C1017.332214,1142.288818 1046.538818,1133.920654 1073.364990,1118.915527 
	C1156.140381,1072.615723 1200.864014,1002.027588 1202.825928,906.935852 
	C1204.482666,826.642822 1203.488281,746.286133 1202.906860,665.963135 
	C1202.784668,649.068420 1200.331299,632.012878 1197.204102,615.359680 
	C1192.634277,591.025024 1183.062378,568.331055 1170.179810,546.304260 
z"/>
<path fill="#FFFFFF" opacity="1.000000" stroke="none" 
	d="
M1170.377441,546.612183 
	C1183.062378,568.331055 1192.634277,591.025024 1197.204102,615.359680 
	C1200.331299,632.012878 1202.784668,649.068420 1202.906860,665.963135 
	C1203.488281,746.286133 1204.482666,826.642822 1202.825928,906.935852 
	C1200.864014,1002.027588 1156.140381,1072.615723 1073.364990,1118.915527 
	C1046.538818,1133.920654 1017.332214,1142.288818 986.663391,1145.087646 
	C977.913513,1145.886230 969.105835,1146.438110 960.324158,1146.444702 
	C844.333069,1146.532959 728.341125,1146.282715 612.351196,1146.660645 
	C583.816711,1146.753540 556.229980,1142.041016 529.679321,1132.567383 
	C499.336090,1121.740601 472.075806,1105.109253 448.272797,1083.125854 
	C417.693909,1054.884521 395.506348,1021.174561 382.042023,981.763855 
	C376.509521,965.570068 372.757019,948.965332 371.032837,931.937256 
	C370.401062,925.698059 369.888977,919.413513 369.883240,913.149109 
	C369.807434,830.155945 369.595703,747.161804 369.909790,664.169800 
	C370.137268,604.062134 391.711578,551.862732 431.351196,507.220917 
	C467.579041,466.421387 512.811218,440.649048 566.554443,430.639801 
	C579.841187,428.165283 593.521851,426.705933 607.026184,426.671967 
	C726.349731,426.371735 845.674316,426.445129 964.998474,426.538391 
	C993.006775,426.560272 1020.194153,431.653259 1046.337036,441.716644 
	C1099.676270,462.248932 1140.814941,497.331726 1170.377441,546.612183 
M1110.163574,789.500061 
	C1110.163574,749.000854 1110.307007,708.500793 1110.056030,668.003174 
	C1109.997803,658.642334 1109.415283,649.133362 1107.673340,639.958435 
	C1094.130371,568.628479 1033.200073,520.242981 965.464600,519.970581 
	C846.134583,519.490723 726.801147,519.815735 607.469238,519.894714 
	C601.209167,519.898804 594.893250,520.361450 588.698547,521.264160 
	C516.705994,531.755432 462.480042,593.513916 462.498413,667.246643 
	C462.518219,746.745728 462.486725,826.244873 462.517212,905.743958 
	C462.522858,920.416443 464.699524,934.754578 468.892059,948.862122 
	C486.732269,1008.893311 543.804932,1053.588989 609.608032,1053.528198 
	C727.606628,1053.419312 845.605408,1053.557983 963.603821,1053.380005 
	C972.831421,1053.366089 982.208557,1052.454834 991.258545,1050.660767 
	C1060.789062,1036.877441 1110.291016,976.750610 1110.174561,905.498840 
	C1110.111938,867.166016 1110.163574,828.833008 1110.163574,789.500061 
z"/>
<path fill="#4383AF" opacity="1.000000" stroke="none" 
	d="
M1110.163574,790.000122 
	C1110.163574,828.833008 1110.111938,867.166016 1110.174561,905.498840 
	C1110.291016,976.750610 1060.789062,1036.877441 991.258545,1050.660767 
	C982.208557,1052.454834 972.831421,1053.366089 963.603821,1053.380005 
	C845.605408,1053.557983 727.606628,1053.419312 609.608032,1053.528198 
	C543.804932,1053.588989 486.732269,1008.893311 468.892059,948.862122 
	C464.699524,934.754578 462.522858,920.416443 462.517212,905.743958 
	C462.486725,826.244873 462.518219,746.745728 462.498413,667.246643 
	C462.480042,593.513916 516.705994,531.755432 588.698547,521.264160 
	C594.893250,520.361450 601.209167,519.898804 607.469238,519.894714 
	C726.801147,519.815735 846.134583,519.490723 965.464600,519.970581 
	C1033.200073,520.242981 1094.130371,568.628479 1107.673340,639.958435 
	C1109.415283,649.133362 1109.997803,658.642334 1110.056030,668.003174 
	C1110.307007,708.500793 1110.163574,749.000854 1110.163574,790.000122 
M707.920654,655.385742 
	C695.150208,662.083923 682.379761,668.782104 669.209900,675.689758 
	C707.151123,749.300964 744.844543,822.431396 782.743774,895.961060 
	C765.895508,904.684143 749.584961,913.128845 732.936890,921.748291 
	C694.713196,847.962036 656.770386,774.717896 618.630249,701.092896 
	C586.872314,717.578430 555.473206,733.877686 523.804382,750.316956 
	C570.649780,840.908203 617.255920,931.036865 664.033081,1021.496155 
	C792.506104,955.128906 920.323242,889.100525 1048.780762,822.741333 
	C1001.964355,732.251953 955.353882,642.160583 908.594177,551.780823 
	C876.843018,568.142090 845.514404,584.285645 813.781433,600.637573 
	C851.798096,674.159058 889.660461,747.382141 927.710999,820.969177 
	C910.698059,829.701172 894.233582,838.151672 877.529480,846.725159 
	C839.345337,772.908386 801.535645,699.815674 763.596008,626.471619 
	C744.876953,636.199280 726.731628,645.628723 707.920654,655.385742 
z"/>
<path fill="#FEFFFF" opacity="1.000000" stroke="none" 
	d="
M708.253540,655.221924 
	C726.731628,645.628723 744.876953,636.199280 763.596008,626.471619 
	C801.535645,699.815674 839.345337,772.908386 877.529480,846.725159 
	C894.233582,838.151672 910.698059,829.701172 927.710999,820.969177 
	C889.660461,747.382141 851.798096,674.159058 813.781433,600.637573 
	C845.514404,584.285645 876.843018,568.142090 908.594177,551.780823 
	C955.353882,642.160583 1001.964355,732.251953 1048.780762,822.741333 
	C920.323242,889.100525 792.506104,955.128906 664.033081,1021.496155 
	C617.255920,931.036865 570.649780,840.908203 523.804382,750.316956 
	C555.473206,733.877686 586.872314,717.578430 618.630249,701.092896 
	C656.770386,774.717896 694.713196,847.962036 732.936890,921.748291 
	C749.584961,913.128845 765.895508,904.684143 782.743774,895.961060 
	C744.844543,822.431396 707.151123,749.300964 669.209900,675.689758 
	C682.379761,668.782104 695.150208,662.083923 708.253540,655.221924 
z"/>
</svg>
